<svg xmlns="http://www.w3.org/2000/svg" width="1442" height="800" viewBox="0 0 1442 800"><path fill="#00A79D" d="M0 0h1442v800h-1442z"/><g><path fill="#F1F2F2" d="M1098 721.734c0 5.5-4.5 10-10 10h-734c-5.5 0-10-4.5-10-10v-654.612c0-5.5 4.5-10 10-10h734c5.5 0 10 4.5 10 10v654.612z"/><circle fill="#00A79D" cx="721" cy="119.773" r="39.623"/><path fill="#fff" d="M1019.481 219.491c0 2.2-1.8 4-4 4h-117.859c-2.2 0-4-1.8-4-4v-23.464c0-2.2 1.8-4 4-4h117.859c2.2 0 4 1.8 4 4v23.464zM862.449 219.491c0 2.2-1.8 4-4 4h-117.861c-2.2 0-4-1.8-4-4v-23.464c0-2.2 1.8-4 4-4h117.861c2.2 0 4 1.8 4 4v23.464zM705.414 219.491c0 2.2-1.8 4-4 4h-117.86c-2.2 0-4-1.8-4-4v-23.464c0-2.2 1.8-4 4-4h117.86c2.2 0 4 1.8 4 4v23.464z"/><path fill="#D1D3D4" d="M548.379 219.491c0 2.2-1.8 4-4 4h-117.861c-2.2 0-4-1.8-4-4v-23.464c0-2.2 1.8-4 4-4h117.861c2.2 0 4 1.8 4 4v23.464z"/><path fill="#fff" d="M862.449 516.664c0 2.2-1.8 4-4 4h-431.931c-2.2 0-4-1.8-4-4v-264.7c0-2.2 1.8-4 4-4h431.931c2.2 0 4 1.8 4 4v264.7z"/><path fill="#D1D3D4" d="M1019.481 516.664c0 2.2-1.8 4-4 4h-117.859c-2.2 0-4-1.8-4-4v-264.7c0-2.2 1.8-4 4-4h117.859c2.2 0 4 1.8 4 4v264.7z"/><path fill="#00A79D" d="M1019.481 654.316c0 2.2-1.8 4-4 4h-588.963c-2.2 0-4-1.8-4-4v-105.042c0-2.2 1.8-4 4-4h588.963c2.2 0 4 1.8 4 4v105.042z"/></g><g><path opacity=".65" fill="#fff" d="M1098 721.734c0 5.5-4.5 10-10 10h-734c-5.5 0-10-4.5-10-10v-654.612c0-5.5 4.5-10 10-10h734c5.5 0 10 4.5 10 10v654.612z"/><path fill="#fff" d="M1052.752 421.307c0 2.2-1.8 4-4 4h-232.839c-2.2 0-4-1.8-4-4v-22.3c0-2.2 1.8-4 4-4h232.839c2.2 0 4 1.8 4 4v22.3z"/><path fill="#BE1E2D" d="M1050.327 393.795h-654.476c-2.005 0-3.635 1.631-3.635 3.636v25.452c0 2.005 1.63 3.636 3.635 3.636h654.477c2.005 0 3.637-1.631 3.637-3.636v-25.452c-.001-2.005-1.633-3.636-3.638-3.636zm1.212 29.088c0 .668-.543 1.212-1.212 1.212h-235.732v-27.875h235.732c.669 0 1.212.543 1.212 1.211v25.452z"/><g fill="#BE1E2D"><path d="M620.642 367.573v4.005h-19.976v-35.211h4.742v31.206h15.234zM656.786 353.985c0 2.638-.418 5.058-1.253 7.261-.835 2.204-2.015 4.099-3.538 5.688-1.523 1.588-3.354 2.821-5.491 3.697-2.138.876-4.501 1.315-7.089 1.315s-4.946-.439-7.076-1.315c-2.129-.876-3.956-2.109-5.479-3.697-1.524-1.589-2.704-3.485-3.539-5.688-.836-2.203-1.253-4.623-1.253-7.261 0-2.637.417-5.057 1.253-7.261.835-2.203 2.015-4.104 3.539-5.7 1.523-1.597 3.349-2.838 5.479-3.723 2.13-.885 4.488-1.327 7.076-1.327 2.588 0 4.952.442 7.089 1.327s3.968 2.125 5.491 3.723c1.523 1.597 2.703 3.498 3.538 5.7.835 2.204 1.253 4.625 1.253 7.261zm-4.89 0c0-2.162-.295-4.104-.885-5.824-.589-1.72-1.425-3.172-2.506-4.361-1.081-1.188-2.392-2.101-3.932-2.739-1.54-.64-3.26-.958-5.16-.958-1.883 0-3.595.319-5.135.958-1.539.638-2.854 1.552-3.943 2.739-1.089 1.188-1.929 2.641-2.519 4.361-.589 1.72-.884 3.662-.884 5.824s.295 4.1.884 5.812c.59 1.711 1.429 3.162 2.519 4.349 1.089 1.188 2.404 2.097 3.943 2.728 1.54.63 3.252.945 5.135.945 1.9 0 3.62-.315 5.16-.945 1.54-.63 2.851-1.54 3.932-2.728 1.081-1.187 1.917-2.637 2.506-4.349.59-1.712.885-3.65.885-5.812zM691.283 371.579h-3.686c-.426 0-.77-.107-1.032-.32-.262-.212-.458-.483-.59-.811l-3.292-8.501h-15.799l-3.292 8.501c-.098.295-.287.558-.566.786-.278.23-.623.345-1.032.345h-3.686l14.08-35.211h4.814l14.081 35.211zm-9.926-13.072l-5.529-14.325c-.164-.427-.336-.922-.517-1.488-.18-.564-.352-1.167-.516-1.805-.343 1.327-.696 2.433-1.056 3.317l-5.529 14.301h13.147zM726.443 353.985c0 2.638-.418 5.038-1.253 7.199-.836 2.163-2.016 4.014-3.538 5.553-1.523 1.54-3.354 2.731-5.492 3.575-2.138.845-4.501 1.266-7.088 1.266h-13.146v-35.211h13.146c2.587 0 4.95.422 7.088 1.266 2.137.844 3.968 2.04 5.492 3.587 1.522 1.549 2.702 3.404 3.538 5.566.835 2.163 1.253 4.563 1.253 7.199zm-4.889 0c0-2.162-.295-4.095-.884-5.798-.59-1.704-1.426-3.146-2.506-4.325-1.081-1.18-2.392-2.08-3.932-2.704-1.54-.622-3.26-.933-5.159-.933h-8.379v27.495h8.379c1.899 0 3.62-.311 5.159-.934 1.54-.623 2.851-1.52 3.932-2.691 1.081-1.17 1.917-2.608 2.506-4.312.589-1.702.884-3.636.884-5.798zM738.064 371.579h-4.766v-35.211h4.766v35.211zM775.586 336.368v35.211h-2.385c-.376 0-.691-.065-.945-.198-.254-.13-.504-.351-.749-.662l-20.37-26.537c.033.409.058.811.074 1.204.017.393.024.761.024 1.106v25.087h-4.177v-35.211h2.457c.213 0 .393.013.541.037.146.024.277.066.393.123.115.058.229.14.345.246.113.107.235.242.368.406l20.369 26.511c-.033-.425-.062-.839-.086-1.241-.025-.401-.036-.781-.036-1.143v-24.939h4.177zM813.179 354.648v13.515c-1.77 1.278-3.657 2.231-5.664 2.863-2.007.63-4.206.945-6.598.945-2.834 0-5.39-.438-7.665-1.314-2.278-.877-4.224-2.105-5.837-3.686s-2.854-3.477-3.723-5.688c-.867-2.211-1.302-4.644-1.302-7.297 0-2.686.422-5.136 1.266-7.346.844-2.212 2.043-4.107 3.599-5.688 1.558-1.581 3.449-2.805 5.678-3.673 2.227-.868 4.716-1.303 7.469-1.303 1.392 0 2.686.103 3.882.307 1.195.205 2.301.5 3.317.885s1.957.852 2.825 1.401c.869.548 1.679 1.167 2.433 1.854l-1.352 2.162c-.212.329-.487.537-.822.627-.337.09-.709.012-1.118-.234-.394-.229-.844-.507-1.352-.836-.508-.327-1.126-.643-1.856-.945-.728-.303-1.587-.561-2.579-.774-.991-.212-2.167-.319-3.525-.319-1.982 0-3.776.324-5.381.97-1.605.647-2.975 1.572-4.104 2.776-1.13 1.205-1.999 2.662-2.604 4.374-.606 1.712-.91 3.633-.91 5.762 0 2.212.316 4.189.947 5.934.63 1.745 1.53 3.227 2.702 4.447 1.171 1.221 2.592 2.151 4.264 2.789 1.671.639 3.547.958 5.626.958 1.638 0 3.092-.185 4.362-.553 1.27-.368 2.51-.88 3.721-1.535v-7.74h-5.478c-.312 0-.562-.09-.75-.271-.188-.18-.282-.401-.282-.663v-2.703h10.811zM818.706 368.875c0-.426.078-.828.233-1.204.156-.377.369-.704.64-.983.271-.278.594-.5.97-.663.377-.164.778-.247 1.204-.247.427 0 .827.083 1.205.247.376.163.703.384.982.663.278.279.499.606.663.983.163.376.245.778.245 1.204 0 .442-.082.847-.245 1.216-.164.368-.385.692-.663.97-.279.279-.606.497-.982.652-.378.155-.778.233-1.205.233-.426 0-.827-.079-1.204-.233-.376-.155-.699-.373-.97-.652-.271-.278-.483-.603-.64-.97-.155-.368-.233-.773-.233-1.216zM830.304 368.875c0-.426.078-.828.233-1.204.155-.377.369-.704.64-.983.271-.278.593-.5.97-.663.377-.164.777-.247 1.204-.247.426 0 .826.083 1.204.247.376.163.704.384.983.663.278.279.499.606.663.983.163.376.245.778.245 1.204 0 .442-.082.847-.245 1.216-.164.368-.385.692-.663.97-.279.279-.607.497-.983.652-.378.155-.778.233-1.204.233-.427 0-.827-.079-1.204-.233-.377-.155-.699-.373-.97-.652-.271-.278-.484-.603-.64-.97-.155-.368-.233-.773-.233-1.216zM841.9 368.875c0-.426.078-.828.233-1.204.155-.377.368-.704.64-.983.271-.278.594-.5.97-.663.376-.164.777-.247 1.204-.247s.827.083 1.204.247c.377.163.704.384.983.663.277.279.499.606.663.983.163.376.245.778.245 1.204 0 .442-.082.847-.245 1.216-.164.368-.386.692-.663.97-.279.279-.606.497-.983.652-.377.155-.777.233-1.204.233s-.828-.079-1.204-.233c-.376-.155-.699-.373-.97-.652-.271-.278-.484-.603-.64-.97-.154-.368-.233-.773-.233-1.216z"/></g></g></svg>